<svg xmlns="http://www.w3.org/2000/svg" width="390" height="844" fill="none" viewBox="0 0 390 844">
  <g clip-path="url(#a)">
    <path fill="#252628" d="M0 0h390v844H0z"/>
    <path fill="#201E20" d="M0 772c0-8.284 6.716-15 15-15h392.501c8.284 0 15 6.716 15 15v75H0v-75Z"/>
    <path fill="#78868E" d="M373.653 815.613c.59-.123.941-.738.678-1.28-.935-1.924-2.543-3.615-4.656-4.876-2.489-1.485-5.538-2.29-8.675-2.29-3.137 0-6.186.805-8.675 2.29-2.113 1.261-3.721 2.952-4.656 4.876-.263.542.088 1.157.678 1.28l4.492.936a39.994 39.994 0 0 0 16.322 0l4.492-.936Z"/>
    <circle cx="361" cy="797.667" r="7.917" fill="#78868E"/>
    <circle cx="261" cy="799.25" r="6.333" fill="#78868E"/>
    <circle cx="268.917" cy="799.25" r="4.75" fill="#78868E"/>
    <circle cx="253.083" cy="799.25" r="4.75" fill="#78868E"/>
    <path fill="#78868E" d="M268.917 805.583c4.252 0 5.707 4.661 6.154 6.83.12.58-.335 1.087-.926 1.087h-4.33c-.639-2.39-1.87-5.101-4.256-6.65a4.92 4.92 0 0 1 3.358-1.267Z"/>
    <path fill="#78868E" fill-rule="evenodd" d="M253.083 805.583c1.403 0 2.5.509 3.358 1.267-2.386 1.549-3.618 4.26-4.256 6.65h-4.33c-.592 0-1.046-.508-.927-1.087.447-2.169 1.903-6.83 6.155-6.83Z" clip-rule="evenodd"/>
    <path fill="#78868E" d="M261 807.167c6.329 0 7.598 6.071 7.853 8.506.057.55-.384.994-.936.994h-13.834c-.552 0-.993-.444-.936-.994.255-2.435 1.524-8.506 7.853-8.506Zm-75.334-.917c0 4.478 0 6.717-1.391 8.108-1.391 1.392-3.631 1.392-8.109 1.392H163.5c-4.478 0-6.718 0-8.109-1.392-1.391-1.391-1.391-3.63-1.391-8.108v-3.75h31.666v3.75Zm-23.749 2.167a1 1 0 0 0 0 2h.016a1 1 0 0 0 0-2h-.016ZM176.166 792c4.478 0 6.718-.001 8.109 1.391 1.284 1.283 1.382 3.289 1.39 7.109h-31.664c.008-3.82.106-5.826 1.39-7.109 1.391-1.392 3.631-1.391 8.109-1.391h12.666Z"/>
    <path fill="#78868E" fill-rule="evenodd" d="M69.375 804.75c.322 0 .584.261.584.583v7.917h-5.917v-7.917c0-.322.261-.583.583-.583h4.75ZM67 787.84c1.757 0 3.232 1.264 6.183 3.793l1.583 1.356c1.632 1.399 2.448 2.099 2.882 3.044.435.945.435 2.02.435 4.169v6.715c0 2.985 0 4.478-.927 5.405-.905.906-2.35.927-5.197.927v-7.916a2.584 2.584 0 0 0-2.584-2.583h-4.75a2.584 2.584 0 0 0-2.583 2.583v7.916c-2.847 0-4.293-.021-5.198-.927-.927-.927-.927-2.42-.927-5.405v-6.715c0-2.149 0-3.224.435-4.169.434-.945 1.25-1.645 2.882-3.044l1.583-1.356c2.95-2.529 4.426-3.793 6.183-3.793Z" clip-rule="evenodd"/>
    <g filter="url(#b)">
      <path fill="#fff" d="M140.725 118.225c-1.4 0-2.65-.258-3.75-.775-1.1-.533-1.958-1.267-2.575-2.2-.6-.95-.9-2.025-.9-3.225v-5.6c0-1.2.3-2.267.9-3.2.617-.933 1.467-1.658 2.55-2.175 1.083-.517 2.325-.775 3.725-.775s2.642.225 3.725.675c1.083.433 1.925 1.042 2.525 1.825a4.24 4.24 0 0 1 .925 2.7c0 .5-.167.892-.5 1.175-.333.283-.775.425-1.325.425-.117 0-.292-.017-.525-.05.033-.2.05-.517.05-.95 0-.717-.208-1.358-.625-1.925-.4-.567-.975-1.008-1.725-1.325-.733-.317-1.575-.475-2.525-.475-.933 0-1.767.175-2.5.525a3.99 3.99 0 0 0-1.725 1.45c-.4.617-.6 1.317-.6 2.1v5.6c0 .8.2 1.517.6 2.15.417.617.992 1.1 1.725 1.45.75.35 1.6.525 2.55.525.967 0 1.825-.158 2.575-.475.75-.317 1.333-.75 1.75-1.3a3.205 3.205 0 0 0 .625-1.95c0-.267-.017-.583-.05-.95.233-.033.4-.05.5-.05.55 0 .992.158 1.325.475.35.317.525.742.525 1.275 0 .983-.308 1.858-.925 2.625-.617.767-1.475 1.367-2.575 1.8-1.083.417-2.333.625-3.75.625Zm10.705 4.975c-1.033 0-1.575-.6-1.625-1.8.5.067.858.1 1.075.1.733 0 1.317-.217 1.75-.65.45-.433.908-1.183 1.375-2.25l.5-1.125-4.925-12.025c.117-.05.267-.092.45-.125.2-.033.367-.05.5-.05.35.017.667.117.95.3.283.167.483.392.6.675l3.35 8.55-.35 1 .15.075 3.8-9.625c.117-.3.308-.533.575-.7.283-.183.6-.275.95-.275.15 0 .317.017.5.05.2.033.35.075.45.125l-5.625 13.775c-.55 1.333-1.167 2.325-1.85 2.975-.683.667-1.55 1-2.6 1Zm12.325-21.225c0-1.133.733-1.7 2.2-1.7v6.1c-.25.217-.425.4-.525.55l.075.125a5.537 5.537 0 0 1 1.825-1.275c.733-.333 1.45-.5 2.15-.5 1.483 0 2.667.392 3.55 1.175s1.325 1.833 1.325 3.15v4.275c0 .833-.208 1.583-.625 2.25-.4.667-.967 1.183-1.7 1.55s-1.567.55-2.5.55c-1.633 0-3.008-.717-4.125-2.15l-.075.1c.1.15.267.358.5.625 0 .483-.167.842-.5 1.075-.333.233-.858.35-1.575.35v-16.25Zm5.3 14.325c1.017 0 1.792-.217 2.325-.65.55-.433.825-1.058.825-1.875V109.7c0-.783-.275-1.392-.825-1.825-.55-.45-1.317-.675-2.3-.675-.867 0-1.608.233-2.225.7-.617.467-.925 1.025-.925 1.675v4.325c0 .683.3 1.258.9 1.725.6.45 1.342.675 2.225.675Zm13.568 1.925c-1.017 0-1.925-.192-2.725-.575-.8-.4-1.425-.942-1.875-1.625a4.253 4.253 0 0 1-.675-2.35v-3.7c0-.883.233-1.683.7-2.4a4.937 4.937 0 0 1 1.925-1.675 5.74 5.74 0 0 1 2.65-.625c.95 0 1.816.2 2.6.6.8.4 1.425.95 1.875 1.65.466.7.7 1.492.7 2.375v1.6a.88.88 0 0 1-.3.675c-.2.183-.442.275-.725.275h-7.3v1.125c0 .85.266 1.533.8 2.05.55.517 1.333.775 2.35.775 1.016 0 1.791-.225 2.325-.675.533-.45.8-1.058.8-1.825.5-.033.916.067 1.25.3.35.217.525.542.525.975 0 .533-.234 1.033-.7 1.5-.45.467-1.05.842-1.8 1.125-.75.283-1.55.425-2.4.425Zm3.15-7.475v-.85c0-.833-.292-1.508-.875-2.025-.567-.533-1.325-.8-2.275-.8s-1.717.267-2.3.8c-.567.517-.85 1.192-.85 2.025v.85h6.3Zm10.336-3.55c-.934 0-1.709.283-2.325.85-.617.55-.925 1.225-.925 2.025v6.55c0 .55-.184.958-.55 1.225-.35.25-.892.375-1.625.375v-11.1c0-1.233.7-1.85 2.1-1.85v1.525c-.267.283-.45.533-.55.75l.1.1c1.066-1.583 2.4-2.375 4-2.375.6 0 1.058.15 1.375.45.316.283.475.633.475 1.05 0 .3-.075.567-.225.8-.467-.25-1.084-.375-1.85-.375Zm4.706-4.975c0-.617.209-1.092.625-1.425.417-.35.992-.525 1.725-.525l6.05 14.525-.475 1.175.175.075 6.4-15.775c.734 0 1.309.175 1.725.525.434.35.65.833.65 1.45v15.975c-1.55 0-2.325-.642-2.325-1.925v-10.525l.65-1.725-.2-.05-5.575 13.55c-.083.2-.216.358-.4.475a.965.965 0 0 1-.575.2c-.216 0-.416-.058-.6-.175a1.004 1.004 0 0 1-.4-.5l-5.575-13.575-.2.075.65 1.7v10.55c0 .633-.2 1.117-.6 1.45-.383.317-.958.475-1.725.475v-16Zm24.536 16c-1.433 0-2.591-.383-3.475-1.15-.866-.767-1.3-1.775-1.3-3.025 0-1.267.459-2.283 1.375-3.05.917-.783 2.125-1.175 3.625-1.175 1.6 0 2.917.567 3.95 1.7l.1-.1c-.183-.2-.391-.408-.625-.625v-1.05c0-.85-.266-1.508-.8-1.975-.533-.467-1.291-.7-2.275-.7-1.75 0-3 .692-3.75 2.075a2.111 2.111 0 0 1-.675-.525c-.166-.233-.25-.467-.25-.7 0-.45.225-.875.675-1.275.45-.417 1.042-.75 1.775-1a7.385 7.385 0 0 1 2.35-.375c1.584 0 2.825.392 3.725 1.175.917.783 1.375 1.867 1.375 3.25v6.85c0 .583-.166 1.008-.5 1.275-.333.267-.858.4-1.575.4v-1.175c.35-.367.542-.583.575-.65l-.1-.1c-1.083 1.283-2.483 1.925-4.2 1.925Zm.375-1.725c1.034 0 1.842-.217 2.425-.65.6-.433.9-1.033.9-1.8 0-.767-.291-1.375-.875-1.825-.583-.45-1.383-.675-2.4-.675-.95 0-1.7.225-2.25.675-.533.433-.8 1.042-.8 1.825 0 .783.259 1.392.775 1.825.534.417 1.275.625 2.225.625Zm12.657 1.725c-1.183 0-2.066-.333-2.65-1-.583-.683-.875-1.575-.875-2.675v-7.3h-2.325c0-.567.125-1 .375-1.3.25-.3.592-.45 1.025-.45h.95v-2.375c0-.55.175-.95.525-1.2.367-.267.909-.4 1.625-.4v3.975h3.325c0 1.167-.525 1.75-1.575 1.75h-1.725v7.225c0 .667.117 1.142.35 1.425.25.267.692.4 1.325.4a3.23 3.23 0 0 0 1.65-.45c.217.217.325.508.325.875 0 .4-.208.75-.625 1.05-.416.3-.983.45-1.7.45Zm9.987 0c-1.017 0-1.925-.192-2.725-.575-.8-.4-1.425-.942-1.875-1.625a4.253 4.253 0 0 1-.675-2.35v-3.7c0-.883.233-1.683.7-2.4a4.937 4.937 0 0 1 1.925-1.675 5.74 5.74 0 0 1 2.65-.625c.95 0 1.816.2 2.6.6.8.4 1.425.95 1.875 1.65.466.7.7 1.492.7 2.375v1.6a.88.88 0 0 1-.3.675c-.2.183-.442.275-.725.275h-7.3v1.125c0 .85.266 1.533.8 2.05.55.517 1.333.775 2.35.775 1.016 0 1.791-.225 2.325-.675.533-.45.8-1.058.8-1.825.5-.033.916.067 1.25.3.35.217.525.542.525.975 0 .533-.234 1.033-.7 1.5-.45.467-1.05.842-1.8 1.125-.75.283-1.55.425-2.4.425Zm3.15-7.475v-.85c0-.833-.292-1.508-.875-2.025-.567-.533-1.325-.8-2.275-.8s-1.717.267-2.3.8c-.567.517-.85 1.192-.85 2.025v.85h6.3Z"/>
    </g>
    <g filter="url(#c)">
      <path fill="#fff" d="M238.584 212.144c-.896 0-1.696-.165-2.4-.496-.704-.341-1.253-.811-1.648-1.408-.384-.608-.576-1.296-.576-2.064v-3.584c0-.768.192-1.451.576-2.048.395-.597.939-1.061 1.632-1.392.693-.331 1.488-.496 2.384-.496.896 0 1.691.144 2.384.432.693.277 1.232.667 1.616 1.168.395.501.592 1.077.592 1.728 0 .32-.107.571-.32.752-.213.181-.496.272-.848.272a2.66 2.66 0 0 1-.336-.032c.021-.128.032-.331.032-.608 0-.459-.133-.869-.4-1.232-.256-.363-.624-.645-1.104-.848-.469-.203-1.008-.304-1.616-.304-.597 0-1.131.112-1.6.336a2.555 2.555 0 0 0-1.104.928 2.417 2.417 0 0 0-.384 1.344v3.584c0 .512.128.971.384 1.376.267.395.635.704 1.104.928.48.224 1.024.336 1.632.336.619 0 1.168-.101 1.648-.304.48-.203.853-.48 1.12-.832.267-.363.4-.779.4-1.248 0-.171-.011-.373-.032-.608.149-.021.256-.032.32-.032.352 0 .635.101.848.304.224.203.336.475.336.816 0 .629-.197 1.189-.592 1.68-.395.491-.944.875-1.648 1.152-.693.267-1.493.4-2.4.4Zm6.851 3.184c-.661 0-1.008-.384-1.04-1.152.32.043.55.064.688.064.47 0 .843-.139 1.12-.416.288-.277.582-.757.88-1.44l.32-.72-3.152-7.696c.075-.032.171-.059.288-.08.128-.021.235-.032.32-.032.224.011.427.075.608.192.182.107.31.251.384.432l2.144 5.472-.224.64.096.048 2.432-6.16a.904.904 0 0 1 .368-.448 1.1 1.1 0 0 1 .608-.176c.096 0 .203.011.32.032.128.021.224.048.288.08l-3.6 8.816c-.352.853-.746 1.488-1.184 1.904-.437.427-.992.64-1.664.64Zm7.888-13.584c0-.725.469-1.088 1.408-1.088v3.904c-.16.139-.272.256-.336.352l.048.08c.32-.341.709-.613 1.168-.816.469-.213.928-.32 1.376-.32.949 0 1.707.251 2.272.752.565.501.848 1.173.848 2.016v2.736a2.66 2.66 0 0 1-.4 1.44 2.585 2.585 0 0 1-1.088.992c-.469.235-1.003.352-1.6.352-1.045 0-1.925-.459-2.64-1.376l-.048.064c.064.096.171.229.32.4 0 .309-.107.539-.32.688-.213.149-.549.224-1.008.224v-10.4Zm3.392 9.168c.651 0 1.147-.139 1.488-.416.352-.277.528-.677.528-1.2v-2.608c0-.501-.176-.891-.528-1.168-.352-.288-.843-.432-1.472-.432-.555 0-1.029.149-1.424.448-.395.299-.592.656-.592 1.072v2.768c0 .437.192.805.576 1.104.384.288.859.432 1.424.432Zm8.684 1.232c-.651 0-1.232-.123-1.744-.368a3.017 3.017 0 0 1-1.2-1.04 2.721 2.721 0 0 1-.432-1.504v-2.368c0-.565.149-1.077.448-1.536.309-.459.72-.816 1.232-1.072a3.672 3.672 0 0 1 1.696-.4c.608 0 1.162.128 1.664.384a2.97 2.97 0 0 1 1.2 1.056c.298.448.448.955.448 1.52v1.024a.562.562 0 0 1-.192.432.664.664 0 0 1-.464.176h-4.672v.72c0 .544.17.981.512 1.312.352.331.853.496 1.504.496.65 0 1.146-.144 1.488-.432.341-.288.512-.677.512-1.168.32-.021.586.043.8.192a.687.687 0 0 1 .336.624c0 .341-.15.661-.448.96-.288.299-.672.539-1.152.72-.48.181-.992.272-1.536.272Zm2.016-4.784v-.544c0-.533-.187-.965-.56-1.296-.363-.341-.848-.512-1.456-.512s-1.099.171-1.472.512c-.363.331-.544.763-.544 1.296v.544h4.032Zm6.615-2.272c-.598 0-1.094.181-1.488.544-.395.352-.592.784-.592 1.296v4.192c0 .352-.118.613-.352.784-.224.16-.571.24-1.04.24v-7.104c0-.789.448-1.184 1.344-1.184v.976a1.938 1.938 0 0 0-.353.48l.065.064c.682-1.013 1.536-1.52 2.56-1.52.384 0 .677.096.88.288a.867.867 0 0 1 .304.672.925.925 0 0 1-.144.512c-.299-.16-.694-.24-1.184-.24Zm3.012-3.184c0-.395.133-.699.4-.912.267-.224.635-.336 1.104-.336l3.872 9.296-.304.752.112.048 4.096-10.096c.469 0 .837.112 1.104.336.277.224.416.533.416.928v10.224c-.992 0-1.488-.411-1.488-1.232v-6.736l.416-1.104-.128-.032-3.568 8.672a.65.65 0 0 1-.256.304.618.618 0 0 1-.368.128.697.697 0 0 1-.384-.112.639.639 0 0 1-.256-.32l-3.568-8.688-.128.048.416 1.088v6.752c0 .405-.128.715-.384.928-.245.203-.613.304-1.104.304v-10.24Zm15.703 10.24c-.918 0-1.659-.245-2.224-.736-.555-.491-.832-1.136-.832-1.936 0-.811.293-1.461.88-1.952.586-.501 1.36-.752 2.32-.752 1.024 0 1.866.363 2.528 1.088l.064-.064a7.533 7.533 0 0 0-.4-.4v-.672c0-.544-.171-.965-.512-1.264-.342-.299-.827-.448-1.456-.448-1.12 0-1.92.443-2.4 1.328a1.332 1.332 0 0 1-.432-.336.765.765 0 0 1-.16-.448c0-.288.144-.56.432-.816.288-.267.666-.48 1.136-.64.48-.16.981-.24 1.504-.24 1.013 0 1.808.251 2.384.752.586.501.88 1.195.88 2.08v4.384c0 .373-.107.645-.32.816-.214.171-.55.256-1.008.256v-.752c.224-.235.346-.373.368-.416l-.064-.064c-.694.821-1.59 1.232-2.688 1.232Zm.24-1.104c.661 0 1.178-.139 1.552-.416.384-.277.576-.661.576-1.152 0-.491-.187-.88-.56-1.168-.374-.288-.886-.432-1.536-.432-.608 0-1.088.144-1.44.432-.342.277-.512.667-.512 1.168 0 .501.165.891.496 1.168.341.267.816.4 1.424.4Zm8.1 1.104c-.757 0-1.322-.213-1.696-.64-.373-.437-.56-1.008-.56-1.712v-4.672h-1.488c0-.363.08-.64.24-.832.16-.192.379-.288.656-.288h.608v-1.52c0-.352.112-.608.336-.768.235-.171.582-.256 1.04-.256V204h2.128c0 .747-.336 1.12-1.008 1.12h-1.104v4.624c0 .427.075.731.224.912.16.171.443.256.848.256.374 0 .726-.096 1.056-.288.139.139.208.325.208.56 0 .256-.133.48-.4.672-.266.192-.629.288-1.088.288Zm6.392 0c-.651 0-1.232-.123-1.744-.368a3.017 3.017 0 0 1-1.2-1.04 2.721 2.721 0 0 1-.432-1.504v-2.368c0-.565.149-1.077.448-1.536.309-.459.72-.816 1.232-1.072a3.672 3.672 0 0 1 1.696-.4c.608 0 1.162.128 1.664.384a2.97 2.97 0 0 1 1.2 1.056c.298.448.448.955.448 1.52v1.024a.562.562 0 0 1-.192.432.664.664 0 0 1-.464.176h-4.672v.72c0 .544.17.981.512 1.312.352.331.853.496 1.504.496.65 0 1.146-.144 1.488-.432.341-.288.512-.677.512-1.168.32-.021.586.043.8.192a.687.687 0 0 1 .336.624c0 .341-.15.661-.448.96-.288.299-.672.539-1.152.72-.48.181-.992.272-1.536.272Zm2.016-4.784v-.544c0-.533-.187-.965-.56-1.296-.363-.341-.848-.512-1.456-.512s-1.099.171-1.472.512c-.363.331-.544.763-.544 1.296v.544h4.032Zm6.868.592c0-.395.09-.699.272-.912.181-.213.453-.32.816-.32h9.712c0 .395-.091.699-.272.912-.182.213-.454.32-.816.32h-9.712Zm23.895-2.368c0 .533-.16.949-.48 1.248-.32.299-.731.501-1.232.608v.064c.533.075.997.267 1.392.576.395.299.592.768.592 1.408 0 .363-.069.699-.208 1.008a2.01 2.01 0 0 1-.608.8c-.277.224-.635.4-1.072.528-.437.117-.965.176-1.584.176h-3.696v-8.576h3.68a5.87 5.87 0 0 1 1.632.208c.491.128.875.352 1.152.672.288.309.432.736.432 1.28Zm-1.184 3.904c0-.491-.187-.843-.56-1.056-.373-.213-.923-.32-1.648-.32h-2.096v2.752h2.128c.704 0 1.243-.101 1.616-.304.373-.213.56-.571.56-1.072Zm-.24-3.728c0-.405-.149-.699-.448-.88-.288-.192-.763-.288-1.424-.288h-2.192v2.352h1.936c.693 0 1.221-.096 1.584-.288.363-.192.544-.491.544-.896Zm7.187 6.4c-.758 0-1.435-.155-2.032-.464-.587-.309-1.051-.789-1.392-1.44-.331-.651-.496-1.483-.496-2.496 0-1.056.176-1.915.528-2.576.352-.661.826-1.147 1.424-1.456.608-.309 1.296-.464 2.064-.464.437 0 .858.048 1.264.144.405.085.736.192.992.32l-.432 1.168a8.273 8.273 0 0 0-.896-.272 3.994 3.994 0 0 0-.96-.128c-.576 0-1.051.123-1.424.368-.374.245-.651.608-.832 1.088-.182.48-.272 1.077-.272 1.792 0 .683.09 1.264.272 1.744.181.48.453.843.816 1.088.362.245.816.368 1.36.368.469 0 .88-.048 1.232-.144.362-.096.693-.213.992-.352v1.248a3.804 3.804 0 0 1-.96.336 5.247 5.247 0 0 1-1.248.128Zm7.559-8.896c.736 0 1.366.16 1.888.48.534.32.939.773 1.216 1.36.288.576.432 1.253.432 2.032v.848h-5.872c.022.971.267 1.712.736 2.224.48.501 1.147.752 2 .752.544 0 1.024-.048 1.44-.144a8.707 8.707 0 0 0 1.312-.448v1.232a6.264 6.264 0 0 1-1.296.416 6.998 6.998 0 0 1-1.52.144c-.81 0-1.53-.165-2.16-.496a3.527 3.527 0 0 1-1.456-1.472c-.341-.661-.512-1.467-.512-2.416 0-.939.155-1.744.464-2.416.32-.672.763-1.189 1.328-1.552.576-.363 1.243-.544 2-.544Zm-.016 1.152c-.672 0-1.205.219-1.6.656-.384.427-.613 1.024-.688 1.792h4.368c0-.491-.074-.917-.224-1.28a1.802 1.802 0 0 0-.688-.848c-.298-.213-.688-.32-1.168-.32Zm-117.794 20.008v3.568h4.656v-3.568h1.408V233h-1.408v-3.824h-4.656V233h-1.408v-8.576h1.408Zm12.092-.16c.736 0 1.365.16 1.888.48.533.32.938.773 1.216 1.36.288.576.432 1.253.432 2.032v.848h-5.872c.021.971.266 1.712.736 2.224.48.501 1.146.752 2 .752.544 0 1.024-.048 1.44-.144a8.745 8.745 0 0 0 1.312-.448v1.232c-.438.192-.87.331-1.296.416a7.01 7.01 0 0 1-1.52.144c-.811 0-1.531-.165-2.16-.496a3.521 3.521 0 0 1-1.456-1.472c-.342-.661-.512-1.467-.512-2.416 0-.939.154-1.744.464-2.416.32-.672.762-1.189 1.328-1.552.576-.363 1.242-.544 2-.544Zm-.016 1.152c-.672 0-1.206.219-1.6.656-.384.427-.614 1.024-.688 1.792h4.368c0-.491-.075-.917-.224-1.28a1.814 1.814 0 0 0-.688-.848c-.299-.213-.688-.32-1.168-.32Zm12.679-4.544c-.043.533-.176.981-.4 1.344a1.968 1.968 0 0 1-.96.816c-.427.181-.982.272-1.664.272-.694 0-1.254-.091-1.68-.272-.416-.181-.72-.448-.912-.8-.192-.363-.31-.816-.352-1.36h1.312c.053.576.202.965.448 1.168.256.192.661.288 1.216.288.49 0 .874-.101 1.152-.304.288-.213.458-.597.512-1.152h1.328Zm-5.616 8.784c0 .096-.006.235-.016.416 0 .171-.006.357-.016.56l-.032.56a14.64 14.64 0 0 1-.032.416l4.592-7.184h1.728V233h-1.312v-5.728l.032-.816c.01-.277.021-.485.032-.624l-4.56 7.168h-1.744v-8.576h1.328v5.232Zm13.033-5.392c1.056 0 1.904.368 2.544 1.104.651.736.976 1.845.976 3.328 0 .971-.149 1.792-.448 2.464-.288.661-.699 1.163-1.232 1.504-.523.331-1.141.496-1.856.496-.437 0-.827-.059-1.168-.176a3.244 3.244 0 0 1-.88-.448 3.723 3.723 0 0 1-.608-.624h-.096c.021.181.043.411.064.688.021.277.032.517.032.72v3.52h-1.408v-12.416h1.152l.192 1.168h.064c.171-.245.373-.469.608-.672.245-.203.533-.363.864-.48a3.7 3.7 0 0 1 1.2-.176Zm-.256 1.184c-.576 0-1.04.112-1.392.336-.352.213-.608.539-.768.976-.16.437-.245.992-.256 1.664v.272c0 .704.075 1.301.224 1.792.149.491.4.864.752 1.12.363.256.853.384 1.472.384.523 0 .949-.144 1.28-.432.341-.288.592-.677.752-1.168.171-.501.256-1.072.256-1.712 0-.981-.192-1.765-.576-2.352-.373-.587-.955-.88-1.744-.88Zm13.476 3.248c0 .715-.096 1.349-.288 1.904a3.823 3.823 0 0 1-.8 1.392 3.347 3.347 0 0 1-1.264.88 4.491 4.491 0 0 1-1.648.288 4.181 4.181 0 0 1-1.568-.288 3.548 3.548 0 0 1-1.248-.88 4.194 4.194 0 0 1-.832-1.392c-.192-.555-.288-1.189-.288-1.904 0-.949.16-1.749.48-2.4.32-.661.778-1.163 1.376-1.504.597-.352 1.306-.528 2.128-.528.778 0 1.461.176 2.048.528.597.341 1.061.843 1.392 1.504.341.651.512 1.451.512 2.4Zm-6.48 0c0 .672.085 1.259.256 1.76.181.491.458.869.832 1.136.373.267.848.4 1.424.4s1.05-.133 1.424-.4c.373-.267.645-.645.816-1.136.181-.501.272-1.088.272-1.76 0-.683-.091-1.264-.272-1.744-.182-.48-.459-.848-.832-1.104-.363-.267-.838-.4-1.424-.4-.875 0-1.51.288-1.904.864-.395.576-.592 1.371-.592 2.384Zm12.151 4.464c-.757 0-1.434-.155-2.032-.464-.586-.309-1.05-.789-1.392-1.44-.33-.651-.496-1.483-.496-2.496 0-1.056.176-1.915.528-2.576.352-.661.827-1.147 1.424-1.456.608-.309 1.296-.464 2.064-.464.438 0 .859.048 1.264.144.406.085.736.192.992.32l-.432 1.168a8.205 8.205 0 0 0-.896-.272 3.98 3.98 0 0 0-.96-.128c-.576 0-1.05.123-1.424.368-.373.245-.65.608-.832 1.088-.181.48-.272 1.077-.272 1.792 0 .683.091 1.264.272 1.744.182.48.454.843.816 1.088.363.245.816.368 1.36.368.47 0 .88-.048 1.232-.144.363-.096.694-.213.992-.352v1.248a3.804 3.804 0 0 1-.96.336 5.236 5.236 0 0 1-1.248.128Zm7.56-8.896c.736 0 1.365.16 1.888.48.533.32.938.773 1.216 1.36.288.576.432 1.253.432 2.032v.848h-5.872c.021.971.266 1.712.736 2.224.48.501 1.146.752 2 .752.544 0 1.024-.048 1.44-.144a8.745 8.745 0 0 0 1.312-.448v1.232c-.438.192-.87.331-1.296.416a7.01 7.01 0 0 1-1.52.144c-.811 0-1.531-.165-2.16-.496a3.521 3.521 0 0 1-1.456-1.472c-.342-.661-.512-1.467-.512-2.416 0-.939.154-1.744.464-2.416.32-.672.762-1.189 1.328-1.552.576-.363 1.242-.544 2-.544Zm-.016 1.152c-.672 0-1.206.219-1.6.656-.384.427-.614 1.024-.688 1.792h4.368c0-.491-.075-.917-.224-1.28a1.814 1.814 0 0 0-.688-.848c-.299-.213-.688-.32-1.168-.32Zm11.655.192h-2.8V233h-1.392v-7.392h-2.768v-1.184h6.96v1.184Zm3.017 4.048c0 .096-.005.235-.016.416 0 .171-.005.357-.016.56l-.032.56c-.01.171-.021.309-.032.416l4.592-7.184h1.728V233h-1.312v-5.728l.032-.816c.011-.277.022-.485.032-.624l-4.56 7.168h-1.744v-8.576h1.328v5.232Zm19.975-3.072c0 .533-.16.949-.48 1.248-.32.299-.731.501-1.232.608v.064c.533.075.997.267 1.392.576.394.299.592.768.592 1.408 0 .363-.07.699-.208 1.008a2.01 2.01 0 0 1-.608.8c-.278.224-.635.4-1.072.528-.438.117-.966.176-1.584.176h-3.696v-8.576h3.68a5.87 5.87 0 0 1 1.632.208c.49.128.874.352 1.152.672.288.309.432.736.432 1.28Zm-1.184 3.904c0-.491-.187-.843-.56-1.056-.374-.213-.923-.32-1.648-.32h-2.096v2.752h2.128c.704 0 1.242-.101 1.616-.304.373-.213.56-.571.56-1.072Zm-.24-3.728c0-.405-.15-.699-.448-.88-.288-.192-.763-.288-1.424-.288h-2.192v2.352h1.936c.693 0 1.221-.096 1.584-.288.362-.192.544-.491.544-.896Zm-85.782 22.936c0 .715-.096 1.349-.288 1.904a3.81 3.81 0 0 1-.8 1.392 3.34 3.34 0 0 1-1.264.88 4.491 4.491 0 0 1-1.648.288 4.185 4.185 0 0 1-1.568-.288 3.548 3.548 0 0 1-1.248-.88 4.21 4.21 0 0 1-.832-1.392c-.192-.555-.288-1.189-.288-1.904 0-.949.16-1.749.48-2.4.32-.661.779-1.163 1.376-1.504.597-.352 1.307-.528 2.128-.528.779 0 1.461.176 2.048.528.597.341 1.061.843 1.392 1.504.341.651.512 1.451.512 2.4Zm-6.48 0c0 .672.085 1.259.256 1.76.181.491.459.869.832 1.136.373.267.848.4 1.424.4s1.051-.133 1.424-.4.645-.645.816-1.136c.181-.501.272-1.088.272-1.76 0-.683-.091-1.264-.272-1.744-.181-.48-.459-.848-.832-1.104-.363-.267-.837-.4-1.424-.4-.875 0-1.509.288-1.904.864-.395.576-.592 1.371-.592 2.384Zm15.08-4.272v7.392h1.248v4.16h-1.36V254h-5.968v2.976h-1.344v-4.16h.688a10.47 10.47 0 0 0 1.216-2.224c.33-.811.576-1.653.736-2.528.17-.885.261-1.765.272-2.64h4.512Zm-3.264 1.104a13.507 13.507 0 0 1-.336 2.256 14.887 14.887 0 0 1-.704 2.208 8.198 8.198 0 0 1-.976 1.824h3.92v-6.288h-1.904Zm7.6-1.104v3.568h4.656v-3.568h1.408V254h-1.408v-3.824h-4.656V254h-1.408v-8.576h1.408Zm16.236 4.272c0 .715-.096 1.349-.288 1.904a3.81 3.81 0 0 1-.8 1.392 3.34 3.34 0 0 1-1.264.88 4.491 4.491 0 0 1-1.648.288 4.185 4.185 0 0 1-1.568-.288 3.548 3.548 0 0 1-1.248-.88 4.21 4.21 0 0 1-.832-1.392c-.192-.555-.288-1.189-.288-1.904 0-.949.16-1.749.48-2.4.32-.661.779-1.163 1.376-1.504.597-.352 1.307-.528 2.128-.528.779 0 1.461.176 2.048.528.597.341 1.061.843 1.392 1.504.341.651.512 1.451.512 2.4Zm-6.48 0c0 .672.085 1.259.256 1.76.181.491.459.869.832 1.136.373.267.848.4 1.424.4s1.051-.133 1.424-.4.645-.645.816-1.136c.181-.501.272-1.088.272-1.76 0-.683-.091-1.264-.272-1.744-.181-.48-.459-.848-.832-1.104-.363-.267-.837-.4-1.424-.4-.875 0-1.509.288-1.904.864-.395.576-.592 1.371-.592 2.384Zm17.911-4.272V254h-1.264v-5.472c0-.224.006-.459.016-.704l.064-.72h-.048l-2.8 6.896h-1.184l-2.72-6.896h-.048c.022.235.032.475.032.72.011.245.016.496.016.752V254h-1.264v-8.576h1.872l2.704 6.896 2.752-6.896h1.872Zm16.063 0V254h-1.264v-5.472c0-.224.005-.459.016-.704l.064-.72h-.048l-2.8 6.896h-1.184l-2.72-6.896h-.048c.021.235.032.475.032.72.011.245.016.496.016.752V254h-1.264v-8.576h1.872l2.704 6.896 2.752-6.896h1.872Zm6.049-.16c.736 0 1.366.16 1.888.48.534.32.939.773 1.216 1.36.288.576.432 1.253.432 2.032v.848h-5.872c.022.971.267 1.712.736 2.224.48.501 1.147.752 2 .752.544 0 1.024-.048 1.44-.144a8.707 8.707 0 0 0 1.312-.448v1.232a6.264 6.264 0 0 1-1.296.416 6.998 6.998 0 0 1-1.52.144c-.81 0-1.53-.165-2.16-.496a3.527 3.527 0 0 1-1.456-1.472c-.341-.661-.512-1.467-.512-2.416 0-.939.155-1.744.464-2.416.32-.672.763-1.189 1.328-1.552.576-.363 1.243-.544 2-.544Zm-.016 1.152c-.672 0-1.205.219-1.6.656-.384.427-.613 1.024-.688 1.792h4.368c0-.491-.074-.917-.224-1.28a1.802 1.802 0 0 0-.688-.848c-.298-.213-.688-.32-1.168-.32Zm9.176 7.744c-.758 0-1.435-.155-2.032-.464-.587-.309-1.051-.789-1.392-1.44-.331-.651-.496-1.483-.496-2.496 0-1.056.176-1.915.528-2.576.352-.661.826-1.147 1.424-1.456.608-.309 1.296-.464 2.064-.464.437 0 .858.048 1.264.144.405.085.736.192.992.32l-.432 1.168a8.273 8.273 0 0 0-.896-.272 3.994 3.994 0 0 0-.96-.128c-.576 0-1.051.123-1.424.368-.374.245-.651.608-.832 1.088-.182.48-.272 1.077-.272 1.792 0 .683.09 1.264.272 1.744.181.48.453.843.816 1.088.362.245.816.368 1.36.368.469 0 .88-.048 1.232-.144.362-.096.693-.213.992-.352v1.248a3.804 3.804 0 0 1-.96.336 5.247 5.247 0 0 1-1.248.128Zm10.167-7.552h-2.8V254h-1.392v-7.392h-2.768v-1.184h6.96v1.184Zm4.845-1.344c.736 0 1.366.16 1.888.48.534.32.939.773 1.216 1.36.288.576.432 1.253.432 2.032v.848h-5.872c.022.971.267 1.712.736 2.224.48.501 1.147.752 2 .752.544 0 1.024-.048 1.44-.144a8.707 8.707 0 0 0 1.312-.448v1.232a6.264 6.264 0 0 1-1.296.416 6.998 6.998 0 0 1-1.52.144c-.81 0-1.53-.165-2.16-.496a3.527 3.527 0 0 1-1.456-1.472c-.341-.661-.512-1.467-.512-2.416 0-.939.155-1.744.464-2.416.32-.672.763-1.189 1.328-1.552.576-.363 1.243-.544 2-.544Zm-.016 1.152c-.672 0-1.205.219-1.6.656-.384.427-.613 1.024-.688 1.792h4.368c0-.491-.074-.917-.224-1.28a1.802 1.802 0 0 0-.688-.848c-.298-.213-.688-.32-1.168-.32Zm5.32 9.824c.384-.352.672-.715.864-1.088.192-.373.288-.736.288-1.088a.82.82 0 0 1-.368.08.996.996 0 0 1-.736-.288c-.182-.203-.272-.459-.272-.768 0-.341.106-.619.32-.832a1.16 1.16 0 0 1 .832-.32c.352 0 .634.117.848.352.224.224.336.507.336.848 0 .725-.112 1.328-.336 1.808-.224.48-.55.901-.976 1.264-.107.085-.256.128-.448.128a.573.573 0 0 1-.352-.096Zm15.57-10.816V254h-1.408v-7.376h-4.432V254h-1.408v-8.576h7.248Zm10.192 4.272c0 .715-.096 1.349-.288 1.904a3.81 3.81 0 0 1-.8 1.392 3.34 3.34 0 0 1-1.264.88 4.491 4.491 0 0 1-1.648.288 4.185 4.185 0 0 1-1.568-.288 3.548 3.548 0 0 1-1.248-.88 4.21 4.21 0 0 1-.832-1.392c-.192-.555-.288-1.189-.288-1.904 0-.949.16-1.749.48-2.4.32-.661.779-1.163 1.376-1.504.597-.352 1.307-.528 2.128-.528.779 0 1.461.176 2.048.528.597.341 1.061.843 1.392 1.504.341.651.512 1.451.512 2.4Zm-6.48 0c0 .672.085 1.259.256 1.76.181.491.459.869.832 1.136.373.267.848.4 1.424.4s1.051-.133 1.424-.4.645-.645.816-1.136c.181-.501.272-1.088.272-1.76 0-.683-.091-1.264-.272-1.744-.181-.48-.459-.848-.832-1.104-.363-.267-.837-.4-1.424-.4-.875 0-1.509.288-1.904.864-.395.576-.592 1.371-.592 2.384Zm15.08-4.272v7.392h1.248v4.16h-1.36V254h-5.968v2.976h-1.344v-4.16h.688a10.47 10.47 0 0 0 1.216-2.224c.33-.811.576-1.653.736-2.528.17-.885.261-1.765.272-2.64h4.512Zm-3.264 1.104a13.507 13.507 0 0 1-.336 2.256 14.887 14.887 0 0 1-.704 2.208 8.198 8.198 0 0 1-.976 1.824h3.92v-6.288h-1.904Zm-124.825 21.08h-2.8V275h-1.392v-7.392h-2.768v-1.184h6.96v1.184Zm8.585.976c0 .533-.16.949-.48 1.248-.32.299-.73.501-1.232.608v.064c.534.075.998.267 1.392.576.395.299.592.768.592 1.408 0 .363-.069.699-.208 1.008-.128.309-.33.576-.608.8-.277.224-.634.4-1.072.528-.437.117-.965.176-1.584.176h-3.696v-8.576h3.68a5.87 5.87 0 0 1 1.632.208c.491.128.875.352 1.152.672.288.309.432.736.432 1.28Zm-1.184 3.904c0-.491-.186-.843-.56-1.056-.373-.213-.922-.32-1.648-.32h-2.096v2.752h2.128c.704 0 1.243-.101 1.616-.304.374-.213.56-.571.56-1.072Zm-.24-3.728c0-.405-.149-.699-.448-.88-.288-.192-.762-.288-1.424-.288h-2.192v2.352h1.936c.694 0 1.222-.096 1.584-.288.363-.192.544-.491.544-.896Zm11.203 1.936c0 .715-.096 1.349-.288 1.904a3.81 3.81 0 0 1-.8 1.392 3.34 3.34 0 0 1-1.264.88 4.491 4.491 0 0 1-1.648.288 4.185 4.185 0 0 1-1.568-.288 3.548 3.548 0 0 1-1.248-.88 4.21 4.21 0 0 1-.832-1.392c-.192-.555-.288-1.189-.288-1.904 0-.949.16-1.749.48-2.4.32-.661.779-1.163 1.376-1.504.597-.352 1.307-.528 2.128-.528.779 0 1.461.176 2.048.528.597.341 1.061.843 1.392 1.504.341.651.512 1.451.512 2.4Zm-6.48 0c0 .672.085 1.259.256 1.76.181.491.459.869.832 1.136.373.267.848.4 1.424.4s1.051-.133 1.424-.4.645-.645.816-1.136c.181-.501.272-1.088.272-1.76 0-.683-.091-1.264-.272-1.744-.181-.48-.459-.848-.832-1.104-.363-.267-.837-.4-1.424-.4-.875 0-1.509.288-1.904.864-.395.576-.592 1.371-.592 2.384Zm10.04.96c0 .096-.006.235-.016.416 0 .171-.006.357-.016.56l-.032.56a14.64 14.64 0 0 1-.032.416l4.592-7.184h1.728V275h-1.312v-5.728l.032-.816c.01-.277.021-.485.032-.624L262.62 275h-1.744v-8.576h1.328v5.232Zm18.153-5.232V275h-1.264v-5.472c0-.224.005-.459.016-.704l.064-.72h-.048l-2.8 6.896h-1.184l-2.72-6.896h-.048c.021.235.032.475.032.72.011.245.016.496.016.752V275h-1.264v-8.576h1.872l2.704 6.896 2.752-6.896h1.872Zm11.934 0h1.536l-3.664 4.128 3.968 4.448h-1.632l-3.872-4.352V275h-1.408v-8.576h1.408v4.16l3.664-4.16Zm10.541 4.272c0 .715-.096 1.349-.288 1.904a3.823 3.823 0 0 1-.8 1.392 3.347 3.347 0 0 1-1.264.88 4.491 4.491 0 0 1-1.648.288 4.181 4.181 0 0 1-1.568-.288 3.548 3.548 0 0 1-1.248-.88 4.194 4.194 0 0 1-.832-1.392c-.192-.555-.288-1.189-.288-1.904 0-.949.16-1.749.48-2.4.32-.661.778-1.163 1.376-1.504.597-.352 1.306-.528 2.128-.528.778 0 1.461.176 2.048.528.597.341 1.061.843 1.392 1.504.341.651.512 1.451.512 2.4Zm-6.48 0c0 .672.085 1.259.256 1.76.181.491.458.869.832 1.136.373.267.848.4 1.424.4s1.05-.133 1.424-.4c.373-.267.645-.645.816-1.136.181-.501.272-1.088.272-1.76 0-.683-.091-1.264-.272-1.744-.182-.48-.459-.848-.832-1.104-.363-.267-.838-.4-1.424-.4-.875 0-1.51.288-1.904.864-.395.576-.592 1.371-.592 2.384Zm10.119-4.272v3.568h4.656v-3.568h1.408V275h-1.408v-3.824h-4.656V275h-1.408v-8.576h1.408Zm14.7 1.184h-2.8V275h-1.392v-7.392h-2.768v-1.184h6.96v1.184Zm5.769-1.344c1.056 0 1.904.368 2.544 1.104.651.736.976 1.845.976 3.328 0 .971-.149 1.792-.448 2.464-.288.661-.699 1.163-1.232 1.504-.523.331-1.141.496-1.856.496-.437 0-.827-.059-1.168-.176a3.244 3.244 0 0 1-.88-.448 3.723 3.723 0 0 1-.608-.624h-.096c.021.181.043.411.064.688.021.277.032.517.032.72v3.52h-1.408v-12.416h1.152l.192 1.168h.064c.171-.245.373-.469.608-.672.245-.203.533-.363.864-.48a3.7 3.7 0 0 1 1.2-.176Zm-.256 1.184c-.576 0-1.04.112-1.392.336-.352.213-.608.539-.768.976-.16.437-.245.992-.256 1.664v.272c0 .704.075 1.301.224 1.792.149.491.4.864.752 1.12.363.256.853.384 1.472.384.523 0 .949-.144 1.28-.432.341-.288.592-.677.752-1.168.171-.501.256-1.072.256-1.712 0-.981-.192-1.765-.576-2.352-.373-.587-.955-.88-1.744-.88Zm13.476 3.248c0 .715-.096 1.349-.288 1.904a3.823 3.823 0 0 1-.8 1.392 3.347 3.347 0 0 1-1.264.88 4.491 4.491 0 0 1-1.648.288 4.181 4.181 0 0 1-1.568-.288 3.548 3.548 0 0 1-1.248-.88 4.194 4.194 0 0 1-.832-1.392c-.192-.555-.288-1.189-.288-1.904 0-.949.16-1.749.48-2.4.32-.661.778-1.163 1.376-1.504.597-.352 1.306-.528 2.128-.528.778 0 1.461.176 2.048.528.597.341 1.061.843 1.392 1.504.341.651.512 1.451.512 2.4Zm-6.48 0c0 .672.085 1.259.256 1.76.181.491.458.869.832 1.136.373.267.848.4 1.424.4s1.05-.133 1.424-.4c.373-.267.645-.645.816-1.136.181-.501.272-1.088.272-1.76 0-.683-.091-1.264-.272-1.744-.182-.48-.459-.848-.832-1.104-.363-.267-.838-.4-1.424-.4-.875 0-1.51.288-1.904.864-.395.576-.592 1.371-.592 2.384ZM348.919 275h-1.424v-7.408h-2.528a40.924 40.924 0 0 1-.4 3.472c-.16.949-.362 1.723-.608 2.32-.245.597-.538 1.035-.88 1.312a1.846 1.846 0 0 1-1.2.416c-.138 0-.277-.011-.416-.032a.882.882 0 0 1-.32-.08v-1.056c.064.021.134.037.208.048.075.011.15.016.224.016.235 0 .448-.096.64-.288.192-.192.363-.485.512-.88.16-.395.304-.891.432-1.488.128-.608.24-1.323.336-2.144.096-.821.182-1.749.256-2.784h5.168V275Zm6.034-8.736c.736 0 1.366.16 1.888.48.534.32.939.773 1.216 1.36.288.576.432 1.253.432 2.032v.848h-5.872c.022.971.267 1.712.736 2.224.48.501 1.147.752 2 .752.544 0 1.024-.048 1.44-.144a8.707 8.707 0 0 0 1.312-.448v1.232a6.264 6.264 0 0 1-1.296.416 6.998 6.998 0 0 1-1.52.144c-.81 0-1.53-.165-2.16-.496a3.527 3.527 0 0 1-1.456-1.472c-.341-.661-.512-1.467-.512-2.416 0-.939.155-1.744.464-2.416.32-.672.763-1.189 1.328-1.552.576-.363 1.243-.544 2-.544Zm-.016 1.152c-.672 0-1.205.219-1.6.656-.384.427-.613 1.024-.688 1.792h4.368c0-.491-.074-.917-.224-1.28a1.802 1.802 0 0 0-.688-.848c-.298-.213-.688-.32-1.168-.32Zm14.936-.992V275h-1.264v-5.472c0-.224.005-.459.016-.704.021-.245.042-.485.064-.72h-.048l-2.8 6.896h-1.184l-2.72-6.896h-.048c.021.235.032.475.032.72.01.245.016.496.016.752V275h-1.264v-8.576h1.872l2.704 6.896 2.752-6.896h1.872Zm3.153 8.72c-.299 0-.549-.096-.752-.288a1.02 1.02 0 0 1-.304-.752c0-.299.101-.549.304-.752a1.02 1.02 0 0 1 .752-.304c.288 0 .539.107.752.32a.98.98 0 0 1 .32.736.98.98 0 0 1-.32.736 1.054 1.054 0 0 1-.752.304Z"/>
    </g>
    <g filter="url(#d)">
      <path fill="#201E20" d="M16 479c0-8.284 6.716-15 15-15h330c8.284 0 15 6.716 15 15v16c0 8.284-6.716 15-15 15H31c-8.284 0-15-6.716-15-15v-16Z"/>
    </g>
    <path fill="#fff" d="M42.568 481.576h1.344v6.272c0 .267-.005.56-.016.88 0 .309-.005.619-.016.928-.01.309-.027.587-.048.832-.01.235-.021.416-.032.544h.064l6.288-9.456h1.6V493h-1.344v-6.208c0-.288.005-.597.016-.928.01-.341.021-.667.032-.976.021-.32.037-.603.048-.848.01-.245.021-.427.032-.544h-.064L44.168 493h-1.6v-11.424Zm15.513 11.584c-.757 0-1.434-.155-2.032-.464-.586-.309-1.05-.789-1.392-1.44-.33-.651-.496-1.483-.496-2.496 0-1.056.176-1.915.528-2.576.352-.661.827-1.147 1.424-1.456.608-.309 1.296-.464 2.064-.464.438 0 .859.048 1.264.144.406.085.736.192.992.32l-.432 1.168a8.253 8.253 0 0 0-.896-.272 3.986 3.986 0 0 0-.96-.128c-.576 0-1.05.123-1.424.368-.373.245-.65.608-.832 1.088-.181.48-.272 1.077-.272 1.792 0 .683.09 1.264.272 1.744.182.48.454.843.816 1.088.363.245.816.368 1.36.368.47 0 .88-.048 1.232-.144.363-.096.694-.213.992-.352v1.248a3.804 3.804 0 0 1-.96.336 5.24 5.24 0 0 1-1.248.128Zm10.168-7.552h-2.8V493h-1.392v-7.392h-2.768v-1.184h6.96v1.184Zm8.989 3.088c0 .715-.096 1.349-.288 1.904a3.815 3.815 0 0 1-.8 1.392 3.34 3.34 0 0 1-1.264.88 4.49 4.49 0 0 1-1.648.288 4.184 4.184 0 0 1-1.568-.288 3.548 3.548 0 0 1-1.248-.88 4.204 4.204 0 0 1-.832-1.392c-.192-.555-.288-1.189-.288-1.904 0-.949.16-1.749.48-2.4.32-.661.779-1.163 1.376-1.504.597-.352 1.306-.528 2.128-.528.778 0 1.461.176 2.048.528.597.341 1.061.843 1.392 1.504.341.651.512 1.451.512 2.4Zm-6.48 0c0 .672.085 1.259.256 1.76.181.491.459.869.832 1.136.373.267.848.4 1.424.4s1.05-.133 1.424-.4c.373-.267.645-.645.816-1.136.181-.501.272-1.088.272-1.76 0-.683-.09-1.264-.272-1.744-.181-.48-.459-.848-.832-1.104-.363-.267-.837-.4-1.424-.4-.875 0-1.51.288-1.904.864-.395.576-.592 1.371-.592 2.384Zm12.791-4.432c1.056 0 1.904.368 2.544 1.104.651.736.976 1.845.976 3.328 0 .971-.149 1.792-.448 2.464-.288.661-.698 1.163-1.232 1.504-.522.331-1.141.496-1.856.496-.437 0-.826-.059-1.168-.176a3.243 3.243 0 0 1-.88-.448 3.72 3.72 0 0 1-.608-.624h-.096c.022.181.043.411.064.688.022.277.032.517.032.72v3.52H79.47v-12.416h1.152l.192 1.168h.064a3.63 3.63 0 0 1 .608-.672c.246-.203.534-.363.864-.48a3.703 3.703 0 0 1 1.2-.176Zm-.256 1.184c-.576 0-1.04.112-1.392.336-.352.213-.608.539-.768.976-.16.437-.245.992-.256 1.664v.272c0 .704.075 1.301.224 1.792.15.491.4.864.752 1.12.363.256.854.384 1.472.384.523 0 .95-.144 1.28-.432.342-.288.592-.677.752-1.168.171-.501.256-1.072.256-1.712 0-.981-.192-1.765-.576-2.352-.373-.587-.954-.88-1.744-.88Zm7.348 4.208c0 .096-.005.235-.016.416 0 .171-.005.357-.016.56l-.032.56c-.01.171-.021.309-.032.416l4.592-7.184h1.728V493h-1.312v-5.728l.032-.816c.01-.277.022-.485.032-.624L91.057 493h-1.744v-8.576h1.328v5.232Zm9.481 3.344H98.49l2.448-3.6a3.752 3.752 0 0 1-.96-.4 2.208 2.208 0 0 1-.752-.784c-.192-.341-.288-.763-.288-1.264 0-.821.278-1.445.832-1.872.555-.437 1.291-.656 2.208-.656h3.84V493h-1.408v-3.408h-2.08L100.122 493Zm.176-6.032c0 .491.182.859.544 1.104.374.235.891.352 1.552.352h2.016v-2.832h-2.288c-.65 0-1.12.128-1.408.384-.277.256-.416.587-.416.992ZM112.849 493v-11.424h8.576V493h-1.424v-10.16h-5.712V493h-1.44Zm15.591-8.736c1.056 0 1.904.368 2.544 1.104.651.736.976 1.845.976 3.328 0 .971-.149 1.792-.448 2.464-.288.661-.699 1.163-1.232 1.504-.523.331-1.141.496-1.856.496-.437 0-.827-.059-1.168-.176a3.244 3.244 0 0 1-.88-.448 3.723 3.723 0 0 1-.608-.624h-.096c.021.181.043.411.064.688.021.277.032.517.032.72v3.52h-1.408v-12.416h1.152l.192 1.168h.064c.171-.245.373-.469.608-.672.245-.203.533-.363.864-.48a3.7 3.7 0 0 1 1.2-.176Zm-.256 1.184c-.576 0-1.04.112-1.392.336-.352.213-.608.539-.768.976-.16.437-.245.992-.256 1.664v.272c0 .704.075 1.301.224 1.792.149.491.4.864.752 1.12.363.256.853.384 1.472.384.523 0 .949-.144 1.28-.432.341-.288.592-.677.752-1.168.171-.501.256-1.072.256-1.712 0-.981-.192-1.765-.576-2.352-.373-.587-.955-.88-1.744-.88Zm13.476 3.248c0 .715-.096 1.349-.288 1.904a3.823 3.823 0 0 1-.8 1.392 3.347 3.347 0 0 1-1.264.88 4.491 4.491 0 0 1-1.648.288 4.181 4.181 0 0 1-1.568-.288 3.548 3.548 0 0 1-1.248-.88 4.194 4.194 0 0 1-.832-1.392c-.192-.555-.288-1.189-.288-1.904 0-.949.16-1.749.48-2.4.32-.661.778-1.163 1.376-1.504.597-.352 1.306-.528 2.128-.528.778 0 1.461.176 2.048.528.597.341 1.061.843 1.392 1.504.341.651.512 1.451.512 2.4Zm-6.48 0c0 .672.085 1.259.256 1.76.181.491.458.869.832 1.136.373.267.848.4 1.424.4s1.05-.133 1.424-.4c.373-.267.645-.645.816-1.136.181-.501.272-1.088.272-1.76 0-.683-.091-1.264-.272-1.744-.182-.48-.459-.848-.832-1.104-.363-.267-.838-.4-1.424-.4-.875 0-1.51.288-1.904.864-.395.576-.592 1.371-.592 2.384Zm17.911-4.272V493h-1.264v-5.472c0-.224.006-.459.016-.704l.064-.72h-.048l-2.8 6.896h-1.184l-2.72-6.896h-.048c.022.235.032.475.032.72.011.245.016.496.016.752V493h-1.264v-8.576h1.872l2.704 6.896 2.752-6.896h1.872Zm8.658 1.184h-2.8V493h-1.392v-7.392h-2.768v-1.184h6.96v1.184Zm8.989 3.088c0 .715-.096 1.349-.288 1.904a3.81 3.81 0 0 1-.8 1.392 3.34 3.34 0 0 1-1.264.88 4.491 4.491 0 0 1-1.648.288 4.185 4.185 0 0 1-1.568-.288 3.548 3.548 0 0 1-1.248-.88 4.21 4.21 0 0 1-.832-1.392c-.192-.555-.288-1.189-.288-1.904 0-.949.16-1.749.48-2.4.32-.661.779-1.163 1.376-1.504.597-.352 1.307-.528 2.128-.528.779 0 1.461.176 2.048.528.597.341 1.061.843 1.392 1.504.341.651.512 1.451.512 2.4Zm-6.48 0c0 .672.085 1.259.256 1.76.181.491.459.869.832 1.136.373.267.848.4 1.424.4s1.051-.133 1.424-.4.645-.645.816-1.136c.181-.501.272-1.088.272-1.76 0-.683-.091-1.264-.272-1.744-.181-.48-.459-.848-.832-1.104-.363-.267-.837-.4-1.424-.4-.875 0-1.509.288-1.904.864-.395.576-.592 1.371-.592 2.384Zm15.607-2.112c0 .533-.16.949-.48 1.248-.32.299-.73.501-1.232.608v.064c.534.075.998.267 1.392.576.395.299.592.768.592 1.408 0 .363-.069.699-.208 1.008-.128.309-.33.576-.608.8-.277.224-.634.4-1.072.528-.437.117-.965.176-1.584.176h-3.696v-8.576h3.68a5.87 5.87 0 0 1 1.632.208c.491.128.875.352 1.152.672.288.309.432.736.432 1.28Zm-1.184 3.904c0-.491-.186-.843-.56-1.056-.373-.213-.922-.32-1.648-.32h-2.096v2.752h2.128c.704 0 1.243-.101 1.616-.304.374-.213.56-.571.56-1.072Zm-.24-3.728c0-.405-.149-.699-.448-.88-.288-.192-.762-.288-1.424-.288h-2.192v2.352h1.936c.694 0 1.222-.096 1.584-.288.363-.192.544-.491.544-.896Z"/>
    <path fill="#78868E" fill-rule="evenodd" d="M346 487c0 7.18-5.82 13-13 13s-13-5.82-13-13 5.82-13 13-13 13 5.82 13 13Zm2 0c0 8.284-6.716 15-15 15-8.284 0-15-6.716-15-15 0-8.284 6.716-15 15-15 8.284 0 15 6.716 15 15Zm-16.667-6a1 1 0 0 1 1 1v5.667H338a1 1 0 1 1 0 2h-6.667a1 1 0 0 1-1-1V482a1 1 0 0 1 1-1Z" clip-rule="evenodd"/>
    <g filter="url(#e)">
      <rect width="203" height="238" x="20" y="200" fill="url(#f)" rx="15"/>
    </g>
    <g filter="url(#g)">
      <rect width="203" height="238" x="20" y="200" fill="url(#h)" rx="15"/>
    </g>
    <path fill="#fff" d="M31.52 181.272c0 .885-.112 1.691-.336 2.416a5.206 5.206 0 0 1-1.008 1.856 4.25 4.25 0 0 1-1.648 1.2c-.65.277-1.408.416-2.272.416-.896 0-1.675-.139-2.336-.416a4.484 4.484 0 0 1-1.648-1.2 5.139 5.139 0 0 1-.976-1.872c-.213-.725-.32-1.531-.32-2.416 0-1.173.192-2.197.576-3.072a4.492 4.492 0 0 1 1.744-2.048c.79-.491 1.781-.736 2.976-.736 1.141 0 2.101.245 2.88.736.779.48 1.365 1.163 1.76 2.048.405.875.608 1.904.608 3.088Zm-9.024 0c0 .96.133 1.787.4 2.48.267.693.677 1.227 1.232 1.6.565.373 1.275.56 2.128.56.864 0 1.568-.187 2.112-.56.555-.373.965-.907 1.232-1.6.267-.693.4-1.52.4-2.48 0-1.44-.299-2.565-.896-3.376-.597-.821-1.541-1.232-2.832-1.232-.864 0-1.579.187-2.144.56-.555.363-.965.891-1.232 1.584-.267.683-.4 1.504-.4 2.464Zm10.916.576c0-1.248.123-2.309.368-3.184.256-.885.645-1.589 1.168-2.112.533-.533 1.216-.891 2.048-1.072a56.69 56.69 0 0 1 2.032-.4c.661-.117 1.28-.224 1.856-.32l.24 1.232c-.277.043-.587.096-.928.16a40.93 40.93 0 0 0-1.04.176 24.99 24.99 0 0 0-1.024.176c-.32.053-.603.107-.848.16a2.763 2.763 0 0 0-.944.384 2.378 2.378 0 0 0-.72.704 3.916 3.916 0 0 0-.464 1.104 7.01 7.01 0 0 0-.208 1.552h.096c.15-.203.352-.411.608-.624.267-.213.581-.395.944-.544a3.386 3.386 0 0 1 1.264-.224c.747 0 1.365.165 1.856.496.501.32.875.768 1.12 1.344.256.576.384 1.248.384 2.016 0 .949-.165 1.744-.496 2.384-.33.64-.79 1.12-1.376 1.44-.587.309-1.27.464-2.048.464-.587 0-1.12-.112-1.6-.336a3.435 3.435 0 0 1-1.232-1.024c-.341-.448-.603-1.003-.784-1.664-.181-.661-.272-1.424-.272-2.288Zm4 4.144c.47 0 .875-.096 1.216-.288.352-.192.624-.507.816-.944.192-.437.288-1.019.288-1.744 0-.875-.165-1.563-.496-2.064-.32-.512-.853-.768-1.6-.768-.47 0-.896.107-1.28.32a3.728 3.728 0 0 0-.96.704c-.256.267-.437.491-.544.672 0 .523.037 1.029.112 1.52.075.491.203.933.384 1.328.192.384.453.693.784.928.341.224.768.336 1.28.336Zm7.434-7.568v3.568h4.656v-3.568h1.408V187h-1.408v-3.824h-4.656V187h-1.408v-8.576h1.408Zm16.236 4.272c0 .715-.096 1.349-.288 1.904a3.813 3.813 0 0 1-.8 1.392 3.339 3.339 0 0 1-1.264.88 4.49 4.49 0 0 1-1.648.288 4.184 4.184 0 0 1-1.568-.288 3.548 3.548 0 0 1-1.248-.88 4.206 4.206 0 0 1-.832-1.392c-.192-.555-.288-1.189-.288-1.904 0-.949.16-1.749.48-2.4.32-.661.778-1.163 1.376-1.504.597-.352 1.306-.528 2.128-.528.778 0 1.461.176 2.048.528.597.341 1.061.843 1.392 1.504.341.651.512 1.451.512 2.4Zm-6.48 0c0 .672.085 1.259.256 1.76.181.491.458.869.832 1.136.373.267.848.4 1.424.4s1.05-.133 1.424-.4c.373-.267.645-.645.816-1.136.181-.501.272-1.088.272-1.76 0-.683-.091-1.264-.272-1.744-.182-.48-.459-.848-.832-1.104-.363-.267-.838-.4-1.424-.4-.875 0-1.51.288-1.904.864-.395.576-.592 1.371-.592 2.384Zm15.607-2.112c0 .533-.16.949-.48 1.248-.32.299-.73.501-1.232.608v.064c.534.075.998.267 1.392.576.395.299.592.768.592 1.408 0 .363-.07.699-.208 1.008-.128.309-.33.576-.608.8-.277.224-.635.4-1.072.528-.437.117-.965.176-1.584.176h-3.696v-8.576h3.68a5.87 5.87 0 0 1 1.632.208c.49.128.875.352 1.152.672.288.309.432.736.432 1.28Zm-1.184 3.904c0-.491-.187-.843-.56-1.056-.373-.213-.922-.32-1.648-.32h-2.096v2.752h2.128c.704 0 1.243-.101 1.616-.304.373-.213.56-.571.56-1.072Zm-.24-3.728c0-.405-.15-.699-.448-.88-.288-.192-.763-.288-1.424-.288h-2.192v2.352h1.936c.694 0 1.222-.096 1.584-.288.363-.192.544-.491.544-.896ZM79.06 187h-1.424v-7.408h-2.528a41.214 41.214 0 0 1-.4 3.472c-.16.949-.363 1.723-.608 2.32-.245.597-.539 1.035-.88 1.312a1.848 1.848 0 0 1-1.2.416c-.139 0-.277-.011-.416-.032a.879.879 0 0 1-.32-.08v-1.056c.064.021.133.037.208.048.075.011.15.016.224.016.235 0 .448-.096.64-.288.192-.192.363-.485.512-.88.16-.395.304-.891.432-1.488.128-.608.24-1.323.336-2.144a64.12 64.12 0 0 0 .256-2.784h5.168V187Zm6.034-8.736c.736 0 1.365.16 1.888.48.533.32.939.773 1.216 1.36.288.576.432 1.253.432 2.032v.848h-5.872c.021.971.267 1.712.736 2.224.48.501 1.147.752 2 .752.544 0 1.024-.048 1.44-.144a8.722 8.722 0 0 0 1.312-.448v1.232a6.28 6.28 0 0 1-1.296.416 7.005 7.005 0 0 1-1.52.144c-.81 0-1.53-.165-2.16-.496a3.523 3.523 0 0 1-1.456-1.472c-.341-.661-.512-1.467-.512-2.416 0-.939.154-1.744.464-2.416.32-.672.762-1.189 1.328-1.552.576-.363 1.243-.544 2-.544Zm-.016 1.152c-.672 0-1.206.219-1.6.656-.384.427-.613 1.024-.688 1.792h4.368c0-.491-.075-.917-.224-1.28a1.809 1.809 0 0 0-.688-.848c-.299-.213-.688-.32-1.168-.32Zm7.143-.992v3.568h4.656v-3.568h1.408V187h-1.408v-3.824h-4.656V187h-1.408v-8.576h1.408Zm10.108 5.232c0 .096-.006.235-.016.416 0 .171-.006.357-.016.56l-.032.56a14.64 14.64 0 0 1-.032.416l4.592-7.184h1.728V187h-1.312v-5.728l.032-.816c.01-.277.021-.485.032-.624l-4.56 7.168h-1.744v-8.576h1.328v5.232ZM111.81 187h-1.632l2.448-3.6a3.732 3.732 0 0 1-.96-.4 2.211 2.211 0 0 1-.752-.784c-.192-.341-.288-.763-.288-1.264 0-.821.277-1.445.832-1.872.555-.437 1.291-.656 2.208-.656h3.84V187h-1.408v-3.408h-2.08L111.81 187Zm.176-6.032c0 .491.181.859.544 1.104.373.235.891.352 1.552.352h2.016v-2.832h-2.288c-.651 0-1.12.128-1.408.384-.277.256-.416.587-.416.992Zm-73.41 41.608c1.493 0 2.581.293 3.264.88.683.587 1.024 1.413 1.024 2.48 0 .469-.08.923-.24 1.36-.15.427-.4.811-.752 1.152-.352.341-.821.613-1.408.816-.587.192-1.307.288-2.16.288h-1.312V234h-1.44v-11.424h3.024Zm-.128 1.232h-1.456v4.512h1.152c.725 0 1.328-.075 1.808-.224.48-.16.837-.411 1.072-.752.235-.341.352-.789.352-1.344 0-.736-.235-1.285-.704-1.648-.47-.363-1.21-.544-2.224-.544Zm9.911 1.456c.736 0 1.366.16 1.889.48.533.32.938.773 1.216 1.36.288.576.431 1.253.431 2.032v.848h-5.872c.022.971.267 1.712.736 2.224.48.501 1.147.752 2 .752.544 0 1.024-.048 1.44-.144a8.718 8.718 0 0 0 1.313-.448v1.232c-.438.192-.87.331-1.297.416a7.004 7.004 0 0 1-1.52.144c-.81 0-1.53-.165-2.16-.496a3.523 3.523 0 0 1-1.455-1.472c-.342-.661-.512-1.467-.512-2.416 0-.939.154-1.744.464-2.416.32-.672.762-1.189 1.328-1.552.575-.363 1.242-.544 2-.544Zm-.016 1.152c-.672 0-1.205.219-1.6.656-.384.427-.613 1.024-.688 1.792h4.368c0-.491-.074-.917-.224-1.28a1.808 1.808 0 0 0-.688-.848c-.298-.213-.688-.32-1.168-.32ZM60.608 234h-1.424v-7.408h-2.528a41.214 41.214 0 0 1-.4 3.472c-.16.949-.363 1.723-.608 2.32-.246.597-.539 1.035-.88 1.312a1.848 1.848 0 0 1-1.2.416c-.139 0-.278-.011-.416-.032a.879.879 0 0 1-.32-.08v-1.056c.064.021.133.037.208.048.074.011.15.016.224.016.234 0 .448-.096.64-.288.192-.192.362-.485.512-.88.16-.395.304-.891.432-1.488.128-.608.24-1.323.336-2.144a64.12 64.12 0 0 0 .256-2.784h5.168V234Zm4.05-3.344c0 .096-.006.235-.016.416 0 .171-.006.357-.016.56l-.032.56c-.01.171-.022.309-.032.416l4.592-7.184h1.728V234H69.57v-5.728l.032-.816c.01-.277.021-.485.032-.624L65.073 234h-1.744v-8.576h1.328v5.232Zm11.209-5.392c.65 0 1.216.091 1.696.272.48.171.853.427 1.12.768.267.331.4.736.4 1.216 0 .523-.144.939-.432 1.248-.288.299-.683.517-1.184.656v.064c.341.096.656.229.944.4.288.171.517.395.688.672.181.277.272.635.272 1.072 0 .469-.133.896-.4 1.28-.256.384-.656.688-1.2.912-.533.224-1.221.336-2.064.336-.405 0-.795-.021-1.168-.064a6.373 6.373 0 0 1-.992-.192 4.268 4.268 0 0 1-.768-.304v-1.264c.363.171.79.325 1.28.464a6.09 6.09 0 0 0 1.632.208c.427 0 .81-.048 1.152-.144.352-.096.63-.245.832-.448.203-.213.304-.501.304-.864 0-.331-.09-.597-.272-.8-.181-.213-.453-.373-.816-.48-.352-.107-.805-.16-1.36-.16h-1.152v-1.152h.928c.736 0 1.323-.096 1.76-.288.448-.203.672-.544.672-1.024 0-.405-.17-.709-.512-.912-.33-.203-.81-.304-1.44-.304-.47 0-.885.048-1.248.144a7.61 7.61 0 0 0-1.168.4l-.496-1.12a6.624 6.624 0 0 1 1.44-.448 8.235 8.235 0 0 1 1.552-.144Zm13.6 8.88a5.181 5.181 0 0 1-2.16-.448c-.65-.309-1.167-.72-1.551-1.232a2.854 2.854 0 0 1-.576-1.728v-4.672c0-.629.186-1.2.56-1.712.384-.523.901-.933 1.552-1.232a5.076 5.076 0 0 1 2.176-.464c.79 0 1.51.155 2.16.464.661.299 1.178.709 1.552 1.232.384.512.576 1.083.576 1.712v4.672c0 .629-.192 1.205-.576 1.728-.384.512-.907.923-1.568 1.232a5.073 5.073 0 0 1-2.144.448Zm0-1.344c.822 0 1.489-.192 2-.576.523-.395.785-.901.785-1.52v-4.608c0-.619-.262-1.12-.784-1.504-.512-.395-1.179-.592-2-.592-.822 0-1.494.197-2.016.592-.512.384-.768.885-.768 1.504v4.608c0 .619.256 1.125.768 1.52.522.384 1.194.576 2.016.576Zm7.029 1.344a1.05 1.05 0 0 1-.752-.288 1.021 1.021 0 0 1-.304-.752c0-.299.101-.549.304-.752a1.02 1.02 0 0 1 .752-.304c.288 0 .538.107.752.32a.98.98 0 0 1 .32.736.978.978 0 0 1-.32.736 1.055 1.055 0 0 1-.752.304Zm3.223-10.032h-.944c-.362 0-.645-.117-.848-.352-.192-.235-.288-.555-.288-.96h2.88c.203 0 .368.069.496.208a.608.608 0 0 1 .208.464v9.424c0 .405-.128.715-.384.928-.256.213-.629.32-1.12.32v-10.032Z"/>
    <path fill="#201E20" d="M0 0h390v69H0z"/>
    <path fill="#fff" d="M29.888 552H28.16l-5.168-5.792V552h-1.44v-11.424h1.44v5.536l5.04-5.536h1.632l-4.96 5.552L29.888 552Zm4.61-8.72c1.046 0 1.82.229 2.32.688.502.459.753 1.189.753 2.192V552h-1.024l-.272-1.216h-.064a4.878 4.878 0 0 1-.768.784 2.522 2.522 0 0 1-.896.448c-.331.096-.736.144-1.216.144-.512 0-.976-.091-1.392-.272a2.143 2.143 0 0 1-.96-.832c-.235-.384-.352-.864-.352-1.44 0-.853.336-1.509 1.008-1.968.672-.469 1.706-.725 3.104-.768l1.456-.048v-.512c0-.715-.155-1.211-.464-1.488-.31-.277-.747-.416-1.312-.416-.448 0-.875.069-1.28.208a8.354 8.354 0 0 0-1.136.448l-.432-1.056a6.164 6.164 0 0 1 1.328-.512 5.698 5.698 0 0 1 1.6-.224Zm.417 4.576c-1.067.043-1.808.213-2.224.512-.406.299-.608.72-.608 1.264 0 .48.144.832.432 1.056.298.224.677.336 1.136.336.725 0 1.328-.197 1.808-.592.48-.405.72-1.024.72-1.856v-.768l-1.264.048Zm11.224-3.248h-2.8V552h-1.392v-7.392H39.18v-1.184h6.96v1.184Zm4.845-1.344c.736 0 1.366.16 1.889.48.533.32.938.773 1.216 1.36.288.576.431 1.253.431 2.032v.848h-5.872c.022.971.267 1.712.736 2.224.48.501 1.147.752 2 .752.544 0 1.024-.048 1.44-.144a8.718 8.718 0 0 0 1.313-.448v1.232c-.438.192-.87.331-1.297.416a7.004 7.004 0 0 1-1.52.144c-.81 0-1.53-.165-2.16-.496a3.523 3.523 0 0 1-1.455-1.472c-.342-.661-.512-1.467-.512-2.416 0-.939.154-1.744.464-2.416.32-.672.762-1.189 1.328-1.552.575-.363 1.242-.544 2-.544Zm-.016 1.152c-.672 0-1.205.219-1.6.656-.384.427-.613 1.024-.688 1.792h4.368c0-.491-.074-.917-.224-1.28a1.808 1.808 0 0 0-.688-.848c-.298-.213-.688-.32-1.168-.32Zm10.968-.992v1.184h-3.824V552h-1.408v-8.576h5.232Zm8.99 4.272c0 .715-.097 1.349-.289 1.904a3.815 3.815 0 0 1-.8 1.392 3.34 3.34 0 0 1-1.264.88 4.49 4.49 0 0 1-1.648.288 4.184 4.184 0 0 1-1.568-.288 3.548 3.548 0 0 1-1.248-.88 4.204 4.204 0 0 1-.832-1.392c-.192-.555-.288-1.189-.288-1.904 0-.949.16-1.749.48-2.4.32-.661.779-1.163 1.376-1.504.598-.352 1.307-.528 2.128-.528.779 0 1.462.176 2.048.528.598.341 1.062.843 1.392 1.504.342.651.512 1.451.512 2.4Zm-6.48 0c0 .672.085 1.259.255 1.76.182.491.459.869.832 1.136.374.267.848.4 1.424.4s1.051-.133 1.424-.4c.374-.267.646-.645.816-1.136.182-.501.272-1.088.272-1.76 0-.683-.09-1.264-.272-1.744-.181-.48-.458-.848-.832-1.104-.362-.267-.837-.4-1.424-.4-.874 0-1.509.288-1.904.864-.394.576-.592 1.371-.592 2.384Zm12.79-4.432c1.057 0 1.905.368 2.545 1.104.65.736.976 1.845.976 3.328 0 .971-.15 1.792-.448 2.464-.288.661-.699 1.163-1.232 1.504-.523.331-1.141.496-1.856.496-.438 0-.827-.059-1.168-.176a3.243 3.243 0 0 1-.88-.448 3.72 3.72 0 0 1-.608-.624h-.096c.021.181.043.411.064.688.021.277.032.517.032.72v3.52h-1.408v-12.416h1.152l.192 1.168h.064a3.63 3.63 0 0 1 .608-.672c.245-.203.533-.363.864-.48a3.703 3.703 0 0 1 1.2-.176Zm-.255 1.184c-.576 0-1.04.112-1.392.336-.352.213-.608.539-.768.976-.16.437-.245.992-.256 1.664v.272c0 .704.075 1.301.224 1.792.15.491.4.864.752 1.12.362.256.853.384 1.472.384.522 0 .95-.144 1.28-.432.341-.288.592-.677.752-1.168.17-.501.256-1.072.256-1.712 0-.981-.192-1.765-.576-2.352-.373-.587-.955-.88-1.744-.88Zm7.348 4.208c0 .096-.006.235-.016.416 0 .171-.006.357-.016.56l-.032.56a14.64 14.64 0 0 1-.032.416l4.592-7.184h1.728V552H89.24v-5.728l.032-.816c.01-.277.021-.485.032-.624L84.745 552H83v-8.576h1.328v5.232Zm10.28 0c0 .096-.004.235-.015.416 0 .171-.005.357-.016.56l-.032.56c-.01.171-.022.309-.032.416l4.592-7.184h1.728V552h-1.312v-5.728l.032-.816c.01-.277.021-.485.032-.624L95.026 552h-1.744v-8.576h1.328v5.232Z"/>
    <rect width="75" height="75" x="56" y="568" fill="#1F1D1F" rx="15"/>
    <path fill="#78868E" d="M97.75 623.021h-9.5c-8.597 0-12.27-3.674-12.27-12.271v-9.5c0-8.598 3.672-12.271 12.27-12.271h9.5c8.598 0 12.271 3.673 12.271 12.271v9.5c0 8.597-3.673 12.271-12.271 12.271Zm-9.5-31.667c-7.3 0-9.896 2.597-9.896 9.896v9.5c0 7.299 2.597 9.896 9.896 9.896h9.5c7.299 0 9.896-2.597 9.896-9.896v-9.5c0-7.299-2.597-9.896-9.896-9.896h-9.5Z"/>
    <path fill="#78868E" d="M88.25 604.021a4.352 4.352 0 0 1-4.354-4.354 4.352 4.352 0 0 1 4.354-4.355 4.352 4.352 0 0 1 4.354 4.355 4.352 4.352 0 0 1-4.354 4.354Zm0-6.333a1.98 1.98 0 1 0 0 3.959 1.98 1.98 0 0 0 0-3.959Zm-10.022 20.504a1.181 1.181 0 0 1-.65-2.169l7.806-5.241c1.71-1.156 4.07-1.014 5.621.301l.523.459c.791.681 2.137.681 2.913 0l6.586-5.653c1.679-1.441 4.323-1.441 6.017 0l2.581 2.217c.491.427.554 1.172.127 1.678a1.198 1.198 0 0 1-1.679.127l-2.581-2.217c-.791-.681-2.137-.681-2.929 0l-6.586 5.653c-1.679 1.441-4.323 1.441-6.017 0l-.522-.459c-.729-.618-1.932-.681-2.74-.127l-7.805 5.241c-.206.126-.444.19-.665.19Z"/>
    <rect width="75" height="75" x="158" y="568" fill="#1F1D1F" rx="15"/>
    <path fill="#78868E" d="M199.702 623.021h-9.5c-8.597 0-12.27-3.674-12.27-12.271v-9.5c0-8.598 3.673-12.271 12.27-12.271h3.167c.649 0 1.188.538 1.188 1.188 0 .649-.539 1.187-1.188 1.187h-3.167c-7.299 0-9.895 2.597-9.895 9.896v9.5c0 7.299 2.596 9.896 9.895 9.896h9.5c7.3 0 9.896-2.597 9.896-9.896v-3.167c0-.649.539-1.187 1.188-1.187.649 0 1.187.538 1.187 1.187v3.167c0 8.597-3.657 12.271-12.271 12.271Z"/>
    <path fill="#78868E" d="M196.235 611.13c-.237 0-.459-.064-.665-.206a1.17 1.17 0 0 1-.522-.982c0-.174-.016-.364-.048-.554-.111-.839-.491-1.583-1.124-2.232-.649-.65-1.441-1.061-2.312-1.172a2.663 2.663 0 0 0-.522-.016 1.175 1.175 0 0 1-1.029-.459 1.237 1.237 0 0 1-.175-1.124c.19-.539.491-1.045.84-1.441l1.947-2.438c3.388-4.228 10.213-9.295 15.248-11.305 1.155-.444 2.375-.19 3.214.649.871.871 1.124 2.106.665 3.23-2.011 5.019-7.078 11.859-11.289 15.231l-2.486 1.995c-.491.349-.887.586-1.299.745-.142.047-.3.079-.443.079Zm-3.262-7.236a6.639 6.639 0 0 1 2.581 1.583 6.324 6.324 0 0 1 1.552 2.47l1.868-1.504c3.943-3.167 8.693-9.563 10.577-14.266.127-.301-.016-.522-.143-.665-.079-.079-.3-.253-.665-.111-4.686 1.885-11.083 6.635-14.25 10.577l-1.52 1.916Z"/>
    <path fill="#78868E" d="M188.192 616.687a3.808 3.808 0 0 1-2.708-1.124 3.828 3.828 0 0 1-1.108-3.182l.332-3.104c.349-3.214 2.961-5.589 6.239-5.652.253-.016.57 0 .871.016 1.44.19 2.723.823 3.736 1.852 1.014 1.014 1.631 2.217 1.805 3.579.048.3.064.601.064.886a6.427 6.427 0 0 1-1.885 4.576c-.997.998-2.295 1.615-3.768 1.805l-3.135.333c-.158.015-.301.015-.443.015Zm3.008-10.703h-.158c-1.821.048-3.737 1.267-3.974 3.547l-.333 3.119c-.047.459.111.918.428 1.235.316.317.76.475 1.203.427l3.119-.332a3.991 3.991 0 0 0 2.359-1.124 4.097 4.097 0 0 0 1.188-2.898c0-.174-.016-.364-.048-.554-.111-.839-.491-1.583-1.124-2.232-.649-.65-1.441-1.061-2.312-1.172-.079-.016-.205-.016-.348-.016Zm9.848 1.172a1.196 1.196 0 0 1-1.187-1.188 4.82 4.82 0 0 0-4.813-4.813c-.65 0-1.188-.538-1.188-1.188 0-.649.538-1.187 1.188-1.187 3.958 0 7.188 3.214 7.188 7.188 0 .649-.523 1.188-1.188 1.188Z"/>
    <rect width="75" height="75" x="260" y="568" fill="#1F1D1F" rx="15"/>
    <path fill="#78868E" d="M287.943 627.021c-3.372 0-6.127-2.755-6.127-6.128 0-3.372 2.755-6.127 6.127-6.127 3.373 0 6.128 2.755 6.128 6.127 0 3.373-2.755 6.128-6.128 6.128Zm0-9.88a3.75 3.75 0 0 0-3.752 3.752 3.75 3.75 0 0 0 3.752 3.753 3.75 3.75 0 0 0 3.753-3.753 3.75 3.75 0 0 0-3.753-3.752Z"/>
    <path fill="#78868E" d="M292.883 622.081a1.196 1.196 0 0 1-1.187-1.188v-19.918c0-2.502 1.504-4.465 3.911-5.114l9.88-2.692c2.01-.554 3.705-.348 4.892.57 1.204.919 1.805 2.454 1.805 4.56v19.317c0 .649-.538 1.187-1.187 1.187-.65 0-1.188-.538-1.188-1.187v-19.333c0-.918-.158-2.121-.871-2.66-.775-.601-2.106-.364-2.834-.158l-9.88 2.692c-1.377.38-2.153 1.409-2.153 2.834v19.918c0 .634-.539 1.172-1.188 1.172Z"/>
    <path fill="#78868E" d="M306.057 623.728c-3.373 0-6.128-2.755-6.128-6.128 0-3.372 2.755-6.127 6.128-6.127 3.372 0 6.127 2.755 6.127 6.127 0 3.373-2.755 6.128-6.127 6.128Zm0-9.88a3.75 3.75 0 0 0-3.753 3.752 3.751 3.751 0 0 0 3.753 3.753 3.75 3.75 0 0 0 3.752-3.753 3.75 3.75 0 0 0-3.752-3.752Zm-13.174-6.587c-.522 0-.997-.349-1.14-.871a1.197 1.197 0 0 1 .824-1.473l18.113-4.94a1.19 1.19 0 0 1 .618 2.296l-18.098 4.94a1.174 1.174 0 0 1-.317.048Z"/>
    <rect width="75" height="75" x="56" y="656" fill="#1F1D1F" rx="15"/>
    <path fill="#78868E" d="M97.75 711.021h-9.5c-8.597 0-12.27-3.674-12.27-12.271v-9.5c0-8.598 3.672-12.271 12.27-12.271h9.5c8.598 0 12.271 3.673 12.271 12.271v9.5c0 8.597-3.673 12.271-12.271 12.271Zm-9.5-31.667c-7.3 0-9.896 2.597-9.896 9.896v9.5c0 7.299 2.597 9.896 9.896 9.896h9.5c7.299 0 9.896-2.597 9.896-9.896v-9.5c0-7.299-2.597-9.896-9.896-9.896h-9.5Z"/>
    <path fill="#78868E" d="M108.01 687.445H77.99c-.65 0-1.188-.538-1.188-1.188 0-.649.523-1.187 1.188-1.187h30.02c.649 0 1.187.538 1.187 1.187 0 .65-.522 1.188-1.187 1.188Z"/>
    <path fill="#78868E" d="M87.49 687.223c-.65 0-1.188-.538-1.188-1.187v-7.695c0-.649.539-1.188 1.188-1.188.65 0 1.188.539 1.188 1.188v7.695c0 .649-.539 1.187-1.188 1.187Zm11.02-.712c-.65 0-1.188-.539-1.188-1.188v-6.982c0-.649.539-1.188 1.188-1.188.65 0 1.188.539 1.188 1.188v6.982c0 .665-.523 1.188-1.188 1.188Zm-6.95 17.179c-.57 0-1.11-.143-1.6-.412-1.077-.633-1.71-1.9-1.71-3.499v-3.8c0-1.599.633-2.882 1.726-3.515 1.092-.633 2.517-.538 3.895.269l3.293 1.9c1.378.792 2.185 1.979 2.185 3.246s-.807 2.454-2.2 3.246l-3.294 1.9c-.76.443-1.552.665-2.296.665Zm.015-9.263c-.158 0-.3.032-.412.095-.332.19-.538.729-.538 1.457v3.8c0 .713.206 1.251.538 1.457.333.19.903.095 1.52-.269l3.294-1.9c.617-.365.997-.808.997-1.188 0-.38-.364-.823-.997-1.187l-3.294-1.9c-.411-.238-.807-.365-1.108-.365Z"/>
    <rect width="75" height="75" x="158" y="656" fill="#1F1D1F" rx="15"/>
    <g clip-path="url(#i)">
      <path fill="#fff" fill-opacity=".01" d="M220.333 675H176v38h44.333v-38Z"/>
      <path stroke="#78868E" stroke-linecap="round" stroke-linejoin="round" stroke-width="2" d="M195 689.25v7.125m10.292-3.958v11.875-11.875Zm-20.584 11.875v5.541h20.584v-5.541h-20.584Zm0 0h-5.541v-11.875c0-2.375 1.583-5.146 3.958-7.125 2.375-1.98 5.542-2.375 5.542-2.375L195 689.25l-10.292 15.042Zm0 0v-11.875 11.875Zm20.584 0h5.541v-11.875c0-2.375-1.583-5.146-3.958-7.125-2.375-1.98-5.542-2.375-5.542-2.375L195 689.25l10.292 15.042Z"/>
      <path stroke="#4B5156" stroke-linecap="round" stroke-linejoin="round" stroke-width="2" d="M183.125 685.292c2.375-1.98 5.542-2.375 5.542-2.375L195 689.25l6.333-6.333s3.167.395 5.542 2.375l1.583-3.563-1.583-3.562h-23.75l-1.583 3.562 1.583 3.563Z"/>
    </g>
  </g>
  <defs>
    <filter id="b" width="320.045" height="222.925" x="33.5" y=".275" color-interpolation-filters="sRGB" filterUnits="userSpaceOnUse">
      <feFlood flood-opacity="0" result="BackgroundImageFix"/>
      <feColorMatrix in="SourceAlpha" result="hardAlpha" values="0 0 0 0 0 0 0 0 0 0 0 0 0 0 0 0 0 0 127 0"/>
      <feOffset/>
      <feGaussianBlur stdDeviation="50"/>
      <feComposite in2="hardAlpha" operator="out"/>
      <feColorMatrix values="0 0 0 0 1 0 0 0 0 0.980769 0 0 0 0 0.980769 0 0 0 1 0"/>
      <feBlend in2="BackgroundImageFix" result="effect1_dropShadow_75_52"/>
      <feBlend in="SourceGraphic" in2="effect1_dropShadow_75_52" result="shape"/>
    </filter>
    <filter id="c" width="340.778" height="278.184" x="133.32" y="100.656" color-interpolation-filters="sRGB" filterUnits="userSpaceOnUse">
      <feFlood flood-opacity="0" result="BackgroundImageFix"/>
      <feColorMatrix in="SourceAlpha" result="hardAlpha" values="0 0 0 0 0 0 0 0 0 0 0 0 0 0 0 0 0 0 127 0"/>
      <feOffset/>
      <feGaussianBlur stdDeviation="50"/>
      <feComposite in2="hardAlpha" operator="out"/>
      <feColorMatrix values="0 0 0 0 1 0 0 0 0 1 0 0 0 0 1 0 0 0 0.25 0"/>
      <feBlend in2="BackgroundImageFix" result="effect1_dropShadow_75_52"/>
      <feBlend in="SourceGraphic" in2="effect1_dropShadow_75_52" result="shape"/>
    </filter>
    <filter id="d" width="760" height="446" x="-184" y="264" color-interpolation-filters="sRGB" filterUnits="userSpaceOnUse">
      <feFlood flood-opacity="0" result="BackgroundImageFix"/>
      <feColorMatrix in="SourceAlpha" result="hardAlpha" values="0 0 0 0 0 0 0 0 0 0 0 0 0 0 0 0 0 0 127 0"/>
      <feOffset/>
      <feGaussianBlur stdDeviation="100"/>
      <feComposite in2="hardAlpha" operator="out"/>
      <feColorMatrix values="0 0 0 0 0.12549 0 0 0 0 0.117647 0 0 0 0 0.12549 0 0 0 1 0"/>
      <feBlend in2="BackgroundImageFix" result="effect1_dropShadow_75_52"/>
      <feBlend in="SourceGraphic" in2="effect1_dropShadow_75_52" result="shape"/>
    </filter>
    <filter id="e" width="603" height="638" x="-180" y="0" color-interpolation-filters="sRGB" filterUnits="userSpaceOnUse">
      <feFlood flood-opacity="0" result="BackgroundImageFix"/>
      <feColorMatrix in="SourceAlpha" result="hardAlpha" values="0 0 0 0 0 0 0 0 0 0 0 0 0 0 0 0 0 0 127 0"/>
      <feOffset/>
      <feGaussianBlur stdDeviation="100"/>
      <feComposite in2="hardAlpha" operator="out"/>
      <feColorMatrix values="0 0 0 0 0 0 0 0 0 0 0 0 0 0 0 0 0 0 0.25 0"/>
      <feBlend in2="BackgroundImageFix" result="effect1_dropShadow_75_52"/>
      <feBlend in="SourceGraphic" in2="effect1_dropShadow_75_52" result="shape"/>
    </filter>
    <filter id="g" width="603" height="638" x="-180" y="0" color-interpolation-filters="sRGB" filterUnits="userSpaceOnUse">
      <feFlood flood-opacity="0" result="BackgroundImageFix"/>
      <feColorMatrix in="SourceAlpha" result="hardAlpha" values="0 0 0 0 0 0 0 0 0 0 0 0 0 0 0 0 0 0 127 0"/>
      <feOffset/>
      <feGaussianBlur stdDeviation="100"/>
      <feComposite in2="hardAlpha" operator="out"/>
      <feColorMatrix values="0 0 0 0 0 0 0 0 0 0 0 0 0 0 0 0 0 0 0.25 0"/>
      <feBlend in2="BackgroundImageFix" result="effect1_dropShadow_75_52"/>
      <feBlend in="SourceGraphic" in2="effect1_dropShadow_75_52" result="shape"/>
    </filter>
    <linearGradient id="f" x1="121.5" x2="121.5" y1="200" y2="438" gradientUnits="userSpaceOnUse">
      <stop offset=".188" stop-color="#867E86"/>
      <stop offset=".841" stop-color="#201E20"/>
    </linearGradient>
    <linearGradient id="h" x1="121.5" x2="121.5" y1="200" y2="438" gradientUnits="userSpaceOnUse">
      <stop offset=".188" stop-color="#867E86"/>
      <stop offset=".841" stop-color="#201E20"/>
    </linearGradient>
    <clipPath id="a">
      <path fill="#fff" d="M0 0h390v844H0z"/>
    </clipPath>
    <clipPath id="i">
      <path fill="#fff" d="M176 675h38v38h-38z"/>
    </clipPath>
  </defs>
</svg>
